<?xml version="1.0" standalone="no"?>
<svg xmlns:xlink="http://www.w3.org/1999/xlink" id="wave" style="transform:rotate(0deg); transition: 0.3s" viewBox="0 0 1440 190" version="1.1" xmlns="http://www.w3.org/2000/svg"><defs><linearGradient id="sw-gradient-0" x1="0" x2="0" y1="1" y2="0"><stop stop-color="rgba(20, 35, 58, 1)" offset="0%"/><stop stop-color="rgba(20, 35, 58, 1)" offset="100%"/></linearGradient></defs><path style="transform:translate(0, 0px); opacity:1" fill="url(#sw-gradient-0)" d="M0,57L120,57C240,57,480,57,720,76C960,95,1200,133,1440,152C1680,171,1920,171,2160,145.7C2400,120,2640,70,2880,41.2C3120,13,3360,6,3600,22.2C3840,38,4080,76,4320,76C4560,76,4800,38,5040,25.3C5280,13,5520,25,5760,31.7C6000,38,6240,38,6480,44.3C6720,51,6960,63,7200,63.3C7440,63,7680,51,7920,63.3C8160,76,8400,114,8640,114C8880,114,9120,76,9360,76C9600,76,9840,114,10080,120.3C10320,127,10560,101,10800,98.2C11040,95,11280,114,11520,126.7C11760,139,12000,146,12240,142.5C12480,139,12720,127,12960,114C13200,101,13440,89,13680,76C13920,63,14160,51,14400,63.3C14640,76,14880,114,15120,120.3C15360,127,15600,101,15840,76C16080,51,16320,25,16560,12.7C16800,0,17040,0,17160,0L17280,0L17280,190L17160,190C17040,190,16800,190,16560,190C16320,190,16080,190,15840,190C15600,190,15360,190,15120,190C14880,190,14640,190,14400,190C14160,190,13920,190,13680,190C13440,190,13200,190,12960,190C12720,190,12480,190,12240,190C12000,190,11760,190,11520,190C11280,190,11040,190,10800,190C10560,190,10320,190,10080,190C9840,190,9600,190,9360,190C9120,190,8880,190,8640,190C8400,190,8160,190,7920,190C7680,190,7440,190,7200,190C6960,190,6720,190,6480,190C6240,190,6000,190,5760,190C5520,190,5280,190,5040,190C4800,190,4560,190,4320,190C4080,190,3840,190,3600,190C3360,190,3120,190,2880,190C2640,190,2400,190,2160,190C1920,190,1680,190,1440,190C1200,190,960,190,720,190C480,190,240,190,120,190L0,190Z"/></svg>